<svg width="112" height="115" viewBox="0 0 112 115" fill="none" xmlns="http://www.w3.org/2000/svg">
<ellipse cx="55.6504" cy="57.3734" rx="55.3656" ry="57.0199" fill="white"/>
<ellipse cx="55.6504" cy="57.3734" rx="55.3656" ry="57.0199" fill="white"/>
<path d="M43.8228 72.3742H56.7192" stroke="#333333" stroke-width="2" stroke-miterlimit="10" stroke-linecap="round" stroke-linejoin="round"/>
<path d="M51.3665 66.9432L56.7193 72.3714L51.3638 77.8023" stroke="#333333" stroke-width="2" stroke-miterlimit="10" stroke-linecap="round" stroke-linejoin="round"/>
<path d="M84.3339 37.3476L32.795 37.342C31.8132 37.342 31.0145 36.5348 31.0145 35.5364C31.0145 34.5408 31.8104 33.7336 32.795 33.7336L77.6052 33.7251C78.7811 33.7251 79.7352 32.7576 79.7352 31.5651C79.7352 30.3727 78.7811 29.4051 77.6052 29.4051H31.3665C28.6263 29.4051 26.3965 31.6664 26.3965 34.4451V79.8951C26.3965 81.3323 27.5475 82.5023 28.9675 82.5023H34.4311C37.7593 87.8095 43.6086 91.3418 50.2592 91.3418C56.9097 91.3418 62.7587 87.8093 66.09 82.5023H84.3335C85.7535 82.5023 86.9045 81.3351 86.9045 79.8951L86.9017 39.9546C86.9017 38.5146 85.7539 37.3476 84.3339 37.3476ZM50.2596 87.7418C41.8752 87.7418 35.0556 80.8259 35.0556 72.3266C35.0556 71.6854 35.0945 71.0413 35.1721 70.4085C36.1123 62.7131 42.5994 56.9085 50.2596 56.9085C52.2232 56.9085 54.1286 57.2826 55.9313 58.0166C61.7222 60.3791 65.4638 65.9957 65.4638 72.3266C65.4638 80.8262 58.6436 87.7418 50.2596 87.7418ZM82.9721 54.9595H69.0497C66.4178 54.9595 64.285 52.7967 64.285 50.1277C64.285 47.4586 66.4178 45.293 69.0497 45.293H82.9721V54.9595ZM67.4771 50.1277C67.4771 51.2723 68.3896 52.2005 69.5211 52.2005C70.6499 52.2005 71.5651 51.2723 71.5651 50.1277C71.5651 48.983 70.6526 48.0549 69.5211 48.0549C68.3923 48.0549 67.4771 48.983 67.4771 50.1277Z" fill="#333333"/>
<path d="M84.3339 37.3476L32.795 37.342C31.8132 37.342 31.0145 36.5348 31.0145 35.5364C31.0145 34.5408 31.8104 33.7336 32.795 33.7336L77.6052 33.7251C78.7811 33.7251 79.7352 32.7576 79.7352 31.5651C79.7352 30.3727 78.7811 29.4051 77.6052 29.4051H31.3665C28.6263 29.4051 26.3965 31.6664 26.3965 34.4451V79.8951C26.3965 81.3323 27.5475 82.5023 28.9675 82.5023H34.4311C37.7593 87.8095 43.6086 91.3418 50.2592 91.3418C56.9097 91.3418 62.7587 87.8093 66.09 82.5023H84.3335C85.7535 82.5023 86.9045 81.3351 86.9045 79.8951L86.9017 39.9546C86.9017 38.5146 85.7539 37.3476 84.3339 37.3476ZM50.2596 87.7418C41.8752 87.7418 35.0556 80.8259 35.0556 72.3266C35.0556 71.6854 35.0945 71.0413 35.1721 70.4085C36.1123 62.7131 42.5994 56.9085 50.2596 56.9085C52.2232 56.9085 54.1286 57.2826 55.9313 58.0166C61.7222 60.3791 65.4638 65.9957 65.4638 72.3266C65.4638 80.8262 58.6436 87.7418 50.2596 87.7418ZM82.9721 54.9595H69.0497C66.4178 54.9595 64.285 52.7967 64.285 50.1277C64.285 47.4586 66.4178 45.293 69.0497 45.293H82.9721V54.9595ZM67.4771 50.1277C67.4771 51.2723 68.3896 52.2005 69.5211 52.2005C70.6499 52.2005 71.5651 51.2723 71.5651 50.1277C71.5651 48.983 70.6526 48.0549 69.5211 48.0549C68.3923 48.0549 67.4771 48.983 67.4771 50.1277Z" fill="#333333"/>
</svg>
