<svg width="112" height="115" viewBox="0 0 112 115" fill="none" xmlns="http://www.w3.org/2000/svg">
<ellipse cx="56.2006" cy="57.8182" rx="55.3656" ry="57.0199" fill="white"/>
<path d="M50.8225 79.2657V66.3693" stroke="#333333" stroke-width="2" stroke-miterlimit="10" stroke-linecap="round" stroke-linejoin="round"/>
<path d="M57.2708 72.8175H44.3743" stroke="#333333" stroke-width="2" stroke-miterlimit="10" stroke-linecap="round" stroke-linejoin="round"/>
<path d="M84.8841 37.7924L33.3452 37.7868C32.3634 37.7868 31.5646 36.9796 31.5646 35.9812C31.5646 34.9855 32.3606 34.1784 33.3452 34.1784L78.1554 34.1699C79.3313 34.1699 80.2854 33.2024 80.2854 32.0099C80.2854 30.8175 79.3313 29.8499 78.1554 29.8499H31.9167C29.1765 29.8499 26.9467 32.1111 26.9467 34.8899V80.3399C26.9467 81.7771 28.0976 82.9471 29.5176 82.9471H34.9813C38.3094 88.2543 44.1588 91.7865 50.8093 91.7865C57.4599 91.7865 63.3089 88.2541 66.6402 82.9471H84.8837C86.3037 82.9471 87.4546 81.7799 87.4546 80.3399L87.4519 40.3994C87.4519 38.9594 86.3041 37.7924 84.8841 37.7924ZM50.8098 88.1866C42.4254 88.1866 35.6058 81.2707 35.6058 72.7714C35.6058 72.1302 35.6446 71.4861 35.7223 70.8533C36.6625 63.1579 43.1496 57.3533 50.8098 57.3533C52.7734 57.3533 54.6787 57.7274 56.4815 58.4614C62.2724 60.8239 66.014 66.4405 66.014 72.7714C66.014 81.271 59.1938 88.1866 50.8098 88.1866ZM83.5223 55.4043H69.5999C66.9679 55.4043 64.8352 53.2415 64.8352 50.5725C64.8352 47.9034 66.9679 45.7378 69.5999 45.7378H83.5223V55.4043ZM68.0273 50.5725C68.0273 51.7171 68.9398 52.6453 70.0713 52.6453C71.2 52.6453 72.1153 51.7171 72.1153 50.5725C72.1153 49.4278 71.2028 48.4997 70.0713 48.4997C68.9425 48.4997 68.0273 49.4278 68.0273 50.5725Z" fill="#333333"/>
</svg>
