<?xml version="1.0" encoding="UTF-8"?>
<svg width="87px" height="15px" viewBox="0 0 87 15" version="1.1" xmlns="http://www.w3.org/2000/svg" xmlns:xlink="http://www.w3.org/1999/xlink">
    <title>Artboard</title>
    <g id="Artboard" stroke="none" stroke-width="1" fill="none" fill-rule="evenodd">
        <g id="wallet_logo_dark" transform="translate(25.395200, -0.272730)" fill="#FFFFFF" fill-rule="nonzero">
            <path d="M4.3701,15.27273 L7.5171,15.27273 L10.418,5.28733 L10.5373,5.28733 L13.4457,15.27273 L16.5927,15.27273 L20.9628,0 L17.4354,0 L14.9074,10.63423 L14.7731,10.63423 L11.9915,0 L8.9713,0 L6.1822,10.61183 L6.0554,10.61183 L3.5274,0 L0,0 L4.3701,15.27273 Z M24.2472,15.48903 C25.94,15.48903 27.0363,14.75073 27.5956,13.68433 L27.6851,13.68433 L27.6851,15.27273 L30.6979,15.27273 L30.6979,7.54683 C30.6979,4.81743 28.3861,3.66904 25.8356,3.66904 C23.0913,3.66904 21.2866,4.98153 20.8466,7.06963 L23.7849,7.30823 C24.0011,6.54763 24.6797,5.98833 25.8207,5.98833 C26.902,5.98833 27.521,6.53263 27.521,7.47233 L27.521,7.51703 C27.521,8.25533 26.738,8.35223 24.7469,8.54613 C22.4798,8.75493 20.4439,9.51563 20.4439,12.07353 C20.4439,14.34053 22.0622,15.48903 24.2472,15.48903 Z M25.157,13.29653 C24.1801,13.29653 23.4791,12.84163 23.4791,11.96913 C23.4791,11.07423 24.2174,10.63423 25.336,10.47763 C26.0295,10.38073 27.163,10.21663 27.5434,9.96303 L27.5434,11.17863 C27.5434,12.37923 26.5515,13.29653 25.157,13.29653 Z M35.9194,0 L32.7425,0 L32.7425,15.27273 L35.9194,15.27273 L35.9194,0 Z M41.221,0 L38.0442,0 L38.0442,15.27273 L41.221,15.27273 L41.221,0 Z M48.5658,15.49643 C51.3998,15.49643 53.3088,14.11683 53.7568,11.99153 L50.8178,11.79763 C50.4978,12.67013 49.6768,13.12503 48.6178,13.12503 C47.0298,13.12503 46.0228,12.07353 46.0228,10.36573 L46.0228,10.35833 L53.8238,10.35833 L53.8238,9.48583 C53.8238,5.59303 51.4668,3.66904 48.4388,3.66904 C45.0688,3.66904 42.8838,6.06283 42.8838,9.59763 C42.8838,13.22943 45.0388,15.49643 48.5658,15.49643 Z M46.0228,8.38953 C46.0898,7.08453 47.0818,6.04053 48.4918,6.04053 C49.8708,6.04053 50.8258,7.02483 50.8328,8.38953 L46.0228,8.38953 Z M61.5698,3.81818 L59.4138,3.81818 L59.4138,1.07387 L56.2378,1.07387 L56.2378,3.81818 L54.6708,3.81818 L54.6708,6.20453 L56.2378,6.20453 L56.2378,12.17043 C56.2228,14.41513 57.7508,15.52633 60.0558,15.42933 C60.8758,15.39953 61.4578,15.23543 61.7778,15.13103 L61.2788,12.76703 C61.1218,12.79683 60.7868,12.87143 60.4878,12.87143 C59.8538,12.87143 59.4138,12.63283 59.4138,11.75283 L59.4138,6.20453 L61.5698,6.20453 L61.5698,3.81818 Z" id="Shape"></path>
        </g>
        <g id="Vector" fill="#FFFFFF" fill-rule="nonzero">
            <path d="M0,0 L9.00269359,15 L18,0 L0,0 Z M3.5411601,1.9142377 L14.4588314,1.9142377 L9.00269359,11.0068443 L3.5411601,1.9142377 Z" id="Shape"></path>
        </g>
    </g>
</svg>